<svg xmlns="http://www.w3.org/2000/svg" width="480" height="360" viewBox="0 0 480 360">
  <defs><linearGradient id="g" x1="0" y1="0" x2="1" y2="1"><stop stop-color="#E5F4EE"/><stop offset="1" stop-color="#FDEBC4"/></linearGradient></defs>
  <rect width="480" height="360" rx="34" fill="url(#g)"/>
  <path d="M42 290c78-48 154-44 226 4 58 38 112 38 170-2" stroke="#F9FBF7" stroke-width="26" stroke-linecap="round"/>
  <rect x="74" y="160" width="72" height="118" rx="14" fill="#2A8278"/>
  <rect x="170" y="92" width="92" height="186" rx="16" fill="#0D4F4A"/>
  <rect x="292" y="132" width="88" height="146" rx="16" fill="#1A8870"/>
  <circle cx="110" cy="126" r="28" fill="#4FD1C5"/>
  <g fill="#fff" opacity=".72"><rect x="96" y="184" width="14" height="14" rx="4"/><rect x="122" y="184" width="14" height="14" rx="4"/><rect x="196" y="126" width="16" height="16" rx="4"/><rect x="224" y="126" width="16" height="16" rx="4"/><rect x="322" y="162" width="15" height="15" rx="4"/></g>
</svg>
