<svg xmlns="http://www.w3.org/2000/svg" width="480" height="360" viewBox="0 0 480 360">
  <defs><linearGradient id="g" x1="0" y1="0" x2="1" y2="1"><stop stop-color="#DDF4EC"/><stop offset="1" stop-color="#BFE4D7"/></linearGradient></defs>
  <rect width="480" height="360" rx="34" fill="url(#g)"/>
  <path d="M0 255c70-34 128-26 190 4 78 38 149 22 290-31v132H0z" fill="#7CCB91" opacity=".75"/>
  <path d="M0 292c78-22 154-20 228 8 70 27 152 18 252-18v78H0z" fill="#4BA66E" opacity=".6"/>
  <path d="M65 250c56-42 108-47 156-14 48 33 98 34 151 2 38-23 74-31 108-25v74H65z" fill="#EEF8F2"/>
  <circle cx="128" cy="130" r="58" fill="#61B85E"/>
  <circle cx="181" cy="111" r="42" fill="#7AD064"/>
  <circle cx="325" cy="126" r="52" fill="#4EAD78"/>
  <rect x="137" y="174" width="14" height="70" rx="7" fill="#8B6B42"/>
  <rect x="319" y="176" width="15" height="74" rx="7" fill="#7A5E39"/>
  <path d="M92 260c82-32 175-36 290 0" stroke="#F9FBF7" stroke-width="18" stroke-linecap="round" fill="none"/>
</svg>
