<svg xmlns="http://www.w3.org/2000/svg" width="480" height="360" viewBox="0 0 480 360">
  <defs><linearGradient id="g" x1="0" y1="0" x2="1" y2="1"><stop stop-color="#E5F6F0"/><stop offset="1" stop-color="#CAE6F7"/></linearGradient></defs>
  <rect width="480" height="360" rx="34" fill="url(#g)"/>
  <ellipse cx="253" cy="236" rx="168" ry="64" fill="#72BFE8" opacity=".85"/>
  <ellipse cx="253" cy="236" rx="118" ry="38" fill="#A9DBF2"/>
  <path d="M0 284c80-38 172-42 276-16 70 18 134 16 204-7v99H0z" fill="#78C982"/>
  <circle cx="91" cy="150" r="46" fill="#4DAE70"/>
  <circle cx="134" cy="126" r="58" fill="#79C965"/>
  <circle cx="380" cy="145" r="55" fill="#6DBE66"/>
  <rect x="126" y="180" width="14" height="78" rx="7" fill="#8C6A43"/>
  <rect x="374" y="190" width="14" height="76" rx="7" fill="#7C613D"/>
  <path d="M77 286c38-24 80-31 126-21" stroke="#F9FBF7" stroke-width="15" stroke-linecap="round" fill="none"/>
</svg>
