<svg xmlns="http://www.w3.org/2000/svg" width="480" height="360" viewBox="0 0 480 360">
  <defs><linearGradient id="g" x1="0" y1="0" x2="1" y2="1"><stop stop-color="#E3EBFB"/><stop offset="1" stop-color="#E5F4EE"/></linearGradient></defs>
  <rect width="480" height="360" rx="34" fill="url(#g)"/>
  <path d="M0 226c86-30 150-24 221 4 82 32 153 22 259-18v148H0z" fill="#5AB9D6"/>
  <path d="M0 278c80-22 148-18 222 8 86 30 159 18 258-17v91H0z" fill="#2D9D6E" opacity=".7"/>
  <path d="M78 206c40-58 84-86 134-83 48 3 92 34 132 93" stroke="#0D4F4A" stroke-width="14" stroke-linecap="round" fill="none"/>
  <path d="M106 207h208" stroke="#F9FBF7" stroke-width="12" stroke-linecap="round"/>
  <circle cx="382" cy="92" r="30" fill="#F4B942"/>
</svg>
