<svg xmlns="http://www.w3.org/2000/svg" width="100" height="100" viewBox="0 0 100 100" fill="none"><circle cx="50" cy="12" r="3" fill="#1A8870"/><line x1="50" y1="14" x2="50" y2="22" stroke="#1A8870" stroke-width="2.5"/><ellipse cx="50" cy="46" rx="28" ry="26" fill="#0F5E4D"/><ellipse cx="42" cy="38" rx="12" ry="9" fill="#1A8870" opacity="0.5"/><circle cx="40" cy="46" r="6" fill="#fff"/><circle cx="60" cy="46" r="6" fill="#fff"/><circle cx="41" cy="47" r="3.5" fill="#1B4D7E"/><circle cx="61" cy="47" r="3.5" fill="#F5B940"/><circle cx="42" cy="46" r="1" fill="#fff"/><circle cx="62" cy="46" r="1" fill="#fff"/><path d="M44 56c2 2 4 3 6 3s4-1 6-3" stroke="#fff" stroke-width="1.6" stroke-linecap="round" fill="none"/><circle cx="20" cy="46" r="4.5" fill="#1A8870"/><circle cx="80" cy="46" r="4.5" fill="#1A8870"/><ellipse cx="50" cy="82" rx="22" ry="13" fill="#fff" stroke="#D8E5DE" stroke-width="1.2"/><circle cx="50" cy="80" r="5" fill="#E8F2EC"/><path d="M50 76v6M50 80c-1.4 0-2.5 1.1-2.5 2.5" stroke="#1A8870" stroke-width="1.4" stroke-linecap="round" fill="none"/><ellipse cx="26" cy="78" rx="5" ry="6" fill="#fff" stroke="#D8E5DE" stroke-width="1"/><ellipse cx="74" cy="78" rx="5" ry="6" fill="#fff" stroke="#D8E5DE" stroke-width="1"/></svg>
